<svg width="467" height="75" viewBox="0 0 467 75" fill="none" xmlns="http://www.w3.org/2000/svg">
<path d="M375 48.4995V27.3623H383.243C389.887 27.3623 394.476 31.9219 394.476 37.8705V37.9309C394.476 43.8795 389.887 48.4995 383.243 48.4995H375ZM383.243 31.5596H379.65V44.3022H383.243C387.048 44.3022 389.615 41.7356 389.615 37.9913V37.9309C389.615 34.1866 387.048 31.5596 383.243 31.5596Z" fill="white"/>
<path d="M398.62 48.4995V27.3623H414.563V31.4992H403.24V35.787H413.205V39.9238H403.24V44.3626H414.714V48.4995H398.62Z" fill="white"/>
<path d="M418.849 48.4995V27.3623H423.861L429.417 36.3003L434.973 27.3623H439.986V48.4995H435.366V34.6999L429.417 43.7285H429.297L423.408 34.7905V48.4995H418.849Z" fill="white"/>
<path d="M455.33 48.8618C448.808 48.8618 444.128 44.0003 444.128 37.9913V37.9309C444.128 31.9219 448.869 27 455.391 27C461.913 27 466.594 31.8615 466.594 37.8705V37.9309C466.594 43.9399 461.853 48.8618 455.33 48.8618ZM455.391 44.574C459.135 44.574 461.732 41.6148 461.732 37.9913V37.9309C461.732 34.3074 459.075 31.2878 455.33 31.2878C451.586 31.2878 448.989 34.247 448.989 37.8705V37.9309C448.989 41.5544 451.647 44.574 455.391 44.574Z" fill="white"/>
<path d="M408.297 63.7071V53.8618H408.924V58.4188H414.322V53.8618H414.949V63.7071H414.322V59.0939H408.924V63.7071H408.297Z" fill="white"/>
<path d="M420.779 63.8618C418.754 63.8618 417.32 62.371 417.32 59.6143V53.8618H417.947V59.544C417.947 61.8646 419.019 63.2008 420.803 63.2008C422.514 63.2008 423.611 61.9912 423.611 59.6143V53.8618H424.237V59.5299C424.237 62.3569 422.827 63.8618 420.779 63.8618Z" fill="white"/>
<path d="M426.609 63.7071V53.8618H430.091C431.043 53.8618 431.815 54.1853 432.285 54.7338C432.634 55.1417 432.827 55.6621 432.827 56.2809V56.3091C432.827 57.6452 432.08 58.3203 431.393 58.6438C432.405 58.9532 433.297 59.6283 433.297 60.9926V61.0207C433.297 62.6663 432.092 63.7071 430.272 63.7071H426.609ZM432.188 56.3794V56.3513C432.188 55.2683 431.429 54.5369 430.079 54.5369H427.235V58.4047H430.019C431.284 58.4047 432.188 57.6874 432.188 56.3794ZM432.658 60.9926C432.658 59.7831 431.754 59.0798 430.091 59.0798H427.235V63.032H430.296C431.742 63.032 432.658 62.2584 432.658 61.0207V60.9926Z" fill="white"/>
<path d="M31.5128 74L0 55.8074V19.4179L31.5128 1.23404L63.0257 19.4266V55.8074L31.5128 74ZM57.9569 52.8779V22.343L31.5128 7.06248L5.08187 22.343V52.8779L31.526 68.1585L57.9569 52.8779Z" fill="white"/>
<path d="M36.5032 54.4278V49.3241L52.8708 39.8021V34.7377L36.5032 44.1636V39.0949L52.8927 29.669L52.8883 25.2725L31.513 12.9302L10.1377 25.2725V49.9528L31.513 62.2951L52.8927 49.9484V44.8796L36.5032 54.4278Z" fill="white"/>
<path d="M103.061 50.6863H78.3892V27.6519H102.253V32.7207H83.864V36.1916H96.6516V41.2473H83.8683V45.6175H103.061V50.6863ZM110.417 27.6519V50.6863H115.896V33.6288L129.802 50.6863H137.049V27.6519H131.565V44.7269L117.665 27.6519H110.417ZM143.541 27.6519V32.7164H153.954V50.6863H159.437V32.7164H169.854V27.6519H143.541ZM275.857 27.6519V32.7164H286.266V50.6863H291.749V32.7164H302.171V27.6519H275.857ZM194.591 27.6432C197.088 27.6432 199.076 28.3257 200.555 29.6908C202.034 31.0559 202.773 32.8808 202.773 35.1656C202.773 38.8155 201.096 41.1439 197.743 42.151L203.816 50.6644H197.429L191.723 42.6618H181.834V50.6775H176.351V27.6432H194.591ZM181.838 32.7207V37.6105H193.626C196.892 37.6105 197.184 36.4535 197.184 35.1481C197.184 33.6725 196.237 32.7207 193.801 32.7207H181.838ZM224.187 46.2549C231.321 46.2549 231.989 43.8144 231.989 41.7057V27.6519H237.464V42.8932C237.464 48.3462 231.622 51.3106 224.187 51.3106C216.765 51.3106 210.911 48.3462 210.911 42.8932V27.6519H216.39V41.7057C216.39 43.8144 217.054 46.2549 224.187 46.2549ZM266.951 34.3666L270.37 30.7561C265.742 27.0669 259.891 27.1761 258.254 27.0713C256.617 26.9665 245.768 26.7351 245.279 34.1265C244.951 39.1385 249.736 40.7757 257.429 40.9678C265.122 41.1599 265.445 42.4959 265.436 43.3341C265.436 44.2422 264.454 46.268 257.578 46.1545C253.111 46.0803 249.282 44.5173 247.222 42.7709L244.166 46.7832C247.776 49.6472 252.387 51.0792 258.11 51.0792C265.004 51.0792 270.924 49.2936 271.238 43.6572C271.601 37.1084 264.908 36.3269 258.8 35.8248C252.902 35.3402 251.042 35.1787 251.059 33.7249C251.059 32.1139 255.534 31.9043 258.617 32.0789C262.188 32.2754 264.895 33.1791 266.951 34.3666Z" fill="white"/>
<path d="M337.006 1.77106V73.4805" stroke="white" stroke-width="2" stroke-linecap="round" stroke-linejoin="round"/>
</svg>
