<svg width="284" height="42" viewBox="0 0 284 42" fill="none" xmlns="http://www.w3.org/2000/svg">
<path d="M205.215 16.2421H207.728V27.6634H205.215V16.2421ZM210.584 16.2421H215.038C218.638 16.2421 221.105 18.7068 221.105 21.9204V21.954C221.105 25.1675 218.626 27.6634 215.038 27.6634H210.584V16.2421ZM215.038 25.3955C217.092 25.3955 218.48 24.0083 218.48 21.9852V21.954C218.48 19.9308 217.092 18.51 215.038 18.51H213.097V25.3955H215.038ZM223.349 16.2421H231.965V18.4788H225.845V20.7948H231.231V23.0291H225.845V25.4291H232.047V27.6634H223.349V16.2421ZM234.271 16.2421H236.587L241.939 23.2739V16.2421H244.418V27.6634H242.28L236.76 20.4036V27.6634H234.281L234.271 16.2421ZM249.818 18.5604H246.343V16.2421H255.806V18.5604H252.331V27.6634H249.818V18.5604ZM257.844 16.2421H260.356V27.6634H257.844V16.2421ZM265.871 18.5604H262.396V16.2421H271.857V18.5604H268.382V27.6634H265.871V18.5604ZM276.995 23.1611L272.608 16.2421H275.543L278.27 20.8284L281.042 16.2421H283.898L279.508 23.1107V27.6706H276.995V23.1611Z" fill="#3F454F"/>
<path d="M17.3229 41L0 30.9994V10.9958L17.3229 1L34.6457 11.0006V30.9994L17.3229 41ZM31.8594 29.389V12.6038L17.3229 4.20394L2.79354 12.6038V29.389L17.3301 37.7889L31.8594 29.389Z" fill="#762B8A"/>
<path d="M20.0661 30.241V27.4354L29.0635 22.2011V19.4172L20.0661 24.5987V21.8124L29.0755 16.6309L29.0731 14.2141L17.3229 7.42944L5.57275 14.2141V27.781L17.3229 34.5657L29.0755 27.7786V24.9923L20.0661 30.241Z" fill="url(#paint0_linear_6_151)"/>
<path d="M56.6533 28.1843H43.0912V15.5221H56.2093V18.3085H46.1007V20.2164H53.1302V22.9956H46.1031V25.3979H56.6533V28.1843ZM60.6972 15.5221V28.1843H63.7092V18.8077L71.353 28.1843H75.3369V15.5221H72.3226V24.9083L64.6812 15.5221H60.6972ZM78.9057 15.5221V18.3061H84.6296V28.1843H87.6439V18.3061H93.3702V15.5221H78.9057ZM151.641 15.5221V18.3061H157.362V28.1843H160.377V18.3061H166.106V15.5221H151.641ZM106.968 15.5173C108.341 15.5173 109.434 15.8925 110.247 16.6429C111.059 17.3933 111.466 18.3965 111.466 19.6524C111.466 21.6588 110.544 22.9388 108.701 23.4924L112.039 28.1723H108.528L105.392 23.7732H99.9556V28.1795H96.9413V15.5173H106.968ZM99.958 18.3085V20.9964H106.438C108.233 20.9964 108.394 20.3604 108.394 19.6428C108.394 18.8317 107.873 18.3085 106.534 18.3085H99.958ZM123.238 25.7483C127.159 25.7483 127.526 24.4067 127.526 23.2476V15.5221H130.536V23.9004C130.536 26.8979 127.325 28.5275 123.238 28.5275C119.158 28.5275 115.939 26.8979 115.939 23.9004V15.5221H118.951V23.2476C118.951 24.4067 119.316 25.7483 123.238 25.7483ZM146.745 19.2133L148.624 17.2285C146.08 15.2005 142.864 15.2605 141.964 15.2029C141.064 15.1453 135.101 15.0181 134.832 19.0813C134.652 21.8364 137.282 22.7364 141.511 22.842C145.74 22.9476 145.917 23.682 145.912 24.1428C145.912 24.6419 145.372 25.7555 141.592 25.6931C139.137 25.6523 137.033 24.7931 135.9 23.8332L134.22 26.0387C136.205 27.6131 138.739 28.4003 141.885 28.4003C145.675 28.4003 148.929 27.4187 149.102 24.3204C149.301 20.7204 145.622 20.2908 142.264 20.0148C139.022 19.7484 138 19.6596 138.009 18.8605C138.009 17.9749 140.469 17.8597 142.164 17.9557C144.127 18.0637 145.615 18.5605 146.745 19.2133Z" fill="#3F454F"/>
<path d="M185.255 1.29517V40.7144" stroke="#762B8A" stroke-width="2" stroke-linecap="round" stroke-linejoin="round"/>
<path d="M219.144 30.5363H219.528L222.032 35.9505H221.595L220.911 34.4458H217.74L217.056 35.9505H216.641L219.144 30.5363ZM220.743 34.0834L219.329 30.9754L217.908 34.0834H220.743ZM222.708 35.1682L222.97 34.8682C223.218 35.1259 223.517 35.3299 223.847 35.4673C224.177 35.6048 224.532 35.6729 224.89 35.6674C225.696 35.6674 226.248 35.2138 226.248 34.5994V34.5826C226.248 34.0162 225.948 33.685 224.729 33.4402C223.438 33.1786 222.917 32.7394 222.917 31.9258V31.9114C222.917 31.1122 223.637 30.4979 224.645 30.4979C225.319 30.476 225.976 30.7091 226.486 31.1506L226.234 31.465C225.796 31.0649 225.221 30.8476 224.628 30.8578C223.836 30.8578 223.316 31.3114 223.316 31.873V31.8874C223.316 32.4562 223.608 32.8018 224.883 33.0634C226.157 33.325 226.649 33.7618 226.649 34.5442V34.561C226.649 35.4274 225.903 36.0273 224.866 36.0273C224.062 36.0356 223.287 35.7269 222.708 35.1682ZM232.315 30.5363H232.699L235.202 35.9505H234.766L234.082 34.4458H230.911L230.227 35.9505H229.812L232.315 30.5363ZM233.914 34.0834L232.5 30.9754L231.079 34.0834H233.914ZM238.298 35.1682L238.56 34.8682C238.808 35.1259 239.107 35.3299 239.437 35.4673C239.767 35.6048 240.122 35.6729 240.48 35.6674C241.286 35.6674 241.838 35.2138 241.838 34.5994V34.5826C241.838 34.0162 241.538 33.685 240.319 33.4402C239.028 33.1786 238.505 32.7394 238.505 31.9258V31.9114C238.505 31.1122 239.225 30.4979 240.233 30.4979C240.907 30.4756 241.566 30.7087 242.076 31.1506L241.836 31.465C241.398 31.0649 240.823 30.8476 240.23 30.8578C239.438 30.8578 238.918 31.3114 238.918 31.873V31.8874C238.918 32.4562 239.208 32.8018 240.485 33.0634C241.762 33.325 242.251 33.7618 242.251 34.5442V34.561C242.251 35.4274 241.505 36.0273 240.468 36.0273C239.66 36.0388 238.88 35.7299 238.298 35.1682ZM243.559 30.5747H247.382V30.9442H243.957V33.0562H247.037V33.4234H243.957V35.5834H247.421V35.9529H243.559V30.5747ZM248.705 30.5747H250.963C251.517 30.5473 252.06 30.7376 252.475 31.105C252.738 31.3707 252.884 31.7297 252.883 32.1034V32.1178C252.883 33.0178 252.213 33.5314 251.309 33.6538L253.082 35.9505H252.576L250.862 33.7234H249.103V35.9505H248.705V30.5747ZM250.915 33.3634C251.815 33.3634 252.482 32.9098 252.482 32.1346V32.1178C252.482 31.3978 251.913 30.9442 250.939 30.9442H249.103V33.3634H250.915ZM253.641 30.5747H254.088L256.192 35.521L258.304 30.5747H258.727L256.36 35.9889H256.008L253.641 30.5747ZM259.917 30.5747H260.308V35.9505H259.91L259.917 30.5747ZM261.729 33.277V33.2626C261.719 32.9025 261.781 32.544 261.911 32.2082C262.041 31.8724 262.238 31.566 262.488 31.3071C262.738 31.0481 263.038 30.8419 263.369 30.7004C263.701 30.559 264.057 30.4852 264.417 30.4835C264.805 30.4758 265.191 30.5482 265.55 30.696C265.91 30.8438 266.235 31.0639 266.505 31.3426L266.222 31.6354C265.991 31.3854 265.711 31.1859 265.399 31.0496C265.087 30.9132 264.75 30.8431 264.41 30.8434C263.119 30.8434 262.144 31.8946 262.144 33.2434V33.2578C262.144 34.6162 263.136 35.677 264.417 35.677C265.192 35.677 265.723 35.377 266.267 34.8394L266.536 35.101C266.267 35.3994 265.938 35.6372 265.57 35.7985C265.202 35.9599 264.804 36.0412 264.403 36.0369C262.867 36.0393 261.729 34.8226 261.729 33.277ZM267.635 30.5747H271.459V30.9442H268.034V33.0562H271.108V33.4234H268.029V35.5834H271.492V35.9529H267.631L267.635 30.5747Z" fill="#3F454F"/>
<defs>
<linearGradient id="paint0_linear_6_151" x1="17.3229" y1="7.42944" x2="17.3229" y2="34.5657" gradientUnits="userSpaceOnUse">
<stop offset="0.2" stop-color="#C6168D"/>
<stop offset="0.8" stop-color="#762B8A"/>
</linearGradient>
</defs>
</svg>
